<?xml version="1.0" encoding="UTF-8"?>
<!-- Generator: Adobe Illustrator 18.0.0, SVG Export Plug-In . SVG Version: 6.00 Build 0)  -->
<!DOCTYPE svg PUBLIC "-//W3C//DTD SVG 1.1//EN" "http://www.w3.org/Graphics/SVG/1.1/DTD/svg11.dtd">
<svg version="1.1" id="图层_1" xmlns="http://www.w3.org/2000/svg" xmlns:xlink="http://www.w3.org/1999/xlink" x="0px" y="0px" viewBox="0 0 50 50" enable-background="new 0 0 50 50" xml:space="preserve">
<g>
	<polygon fill="#666666" points="33.61,21.09 38.956,5.83 19.84,25.898 31.89,25.898 28.836,45.012 45.57,20.867  "/>
	<path fill="#666666" d="M17.263,26.435l8.861-11.193c-1.396-1.32-6.017-4.543-6.383-4.847c-1.088-0.907-1.578-0.722-1.578-0.722   l-2.122-0.027h-0.358V9.317l0.358,0.004c0,0,0-1.488,0-2.402c0-1.905-1.687-1.85-1.687-1.85s-3.156,0-5.387,0   c-2.231,0-2.013,1.687-2.013,1.687v2.54h0.378v0.297L6.954,9.603c0,0-0.92-0.016-1.669,0.733c-1.063,1.063-0.834,2.322-0.834,2.322   s0,28.09,0,28.634c0,0.544,0,1.778,1.016,2.793C6.482,45.101,7.28,45.01,7.28,45.01s15.437,0,20.485,0l1.284-17.303L17.263,26.435z   "/>
</g>
</svg>