<?xml version="1.0" encoding="UTF-8"?>
<!-- Generator: Adobe Illustrator 18.0.0, SVG Export Plug-In . SVG Version: 6.00 Build 0)  -->
<!DOCTYPE svg PUBLIC "-//W3C//DTD SVG 1.1//EN" "http://www.w3.org/Graphics/SVG/1.1/DTD/svg11.dtd">
<svg version="1.1" id="图层_1" xmlns="http://www.w3.org/2000/svg" xmlns:xlink="http://www.w3.org/1999/xlink" x="0px" y="0px" viewBox="0 0 50 50" enable-background="new 0 0 50 50" xml:space="preserve">
<g>
	<path fill="#666666" d="M31.782,27.816l-0.029-0.029l-5.27-16.866h-8.893l-7.411,23.715l11.857,10.376l11.857-10.376l-2.127-6.805   L31.782,27.816L31.782,27.816z M20.553,13.887h2.964l0.31,1.007l-5.177,5.177L20.553,13.887L20.553,13.887z M16.786,26.127   l8.027-8.027l0.854,2.774L15.174,31.367L16.786,26.127L16.786,26.127z M16.228,34.759l10.485-10.485l0.88,2.859l-9.535,9.457   L16.228,34.759L16.228,34.759z M22.035,40.566l-1.549-1.549l8.247-8.179l0.713,2.316L22.035,40.566L22.035,40.566z M26.482,9.439   l2.964-8.893H14.624l2.965,8.893H26.482L26.482,9.439z M32.41,24.262l7.412,4.447l-2.965-10.376l-7.411-4.446L32.41,24.262   L32.41,24.262z M32.41,24.262"/>
</g>
</svg>