<?xml version="1.0" encoding="UTF-8"?>
<!-- Generator: Adobe Illustrator 18.0.0, SVG Export Plug-In . SVG Version: 6.00 Build 0)  -->
<!DOCTYPE svg PUBLIC "-//W3C//DTD SVG 1.1//EN" "http://www.w3.org/Graphics/SVG/1.1/DTD/svg11.dtd">
<svg version="1.1" id="图层_1" xmlns="http://www.w3.org/2000/svg" xmlns:xlink="http://www.w3.org/1999/xlink" x="0px" y="0px" viewBox="0 0 50 50" enable-background="new 0 0 50 50" xml:space="preserve">
<path fill="#666666" d="M49.827,21.086c-0.722-1.315-1.333-1.903-3.697-1.636c-0.349,0.038-0.971-0.676-1.162-1.161  c-1.124-2.901-2.494-4.319-3.513-7.26c-0.642-1.861-2.742-3.481-4.539-3.98c-2.426-0.674-4.425-0.931-6.892-1.454  c-3.606-0.536-6.262-0.505-10.206,0.05c-1.404,0.216-2.718,0.441-4.114,0.708c-3.708,0.713-6.613,2.331-7.672,6.352  c-0.632,2.392-1.682,3.351-2.566,5.668c-0.171,0.448-0.748,1.116-1.061,1.077c-2.589-0.33-3.65-0.1-4.34,1.952  c-0.126,0.476-0.054,0.912,0,1.269c0.994,0.264,3.089,0.962,3.089,0.962c-0.14,3.995-0.456,8.577-0.493,12.302  c-0.02,2.006-0.1,4.019,0.038,6.015c0.066,0.923,0.408,2.36,0.912,2.717c0.371,0.494,7.023,0.477,8.264,0  c0.569-0.219,0.85-3.146,1.322-4.89h24.378c0.598,1.648-0.549,3.679,1.315,4.89c0.558,0.385,7.733,0.411,8.056-0.143  c0.341-0.213,0.83-1.53,0.846-2.376c0.095-4.741,0.066-9.484,0.027-14.225c-0.005-1.039-0.838-3.433-0.965-4.457  c0.906-0.249,2.142-0.52,3.126-0.793C50.054,22.278,50.125,21.629,49.827,21.086z M13.434,31.521  c-0.465,0.101-1.087,0.812-1.087,0.812s-1.213,0.022-2.231,0c-1.077-0.13-2.452-0.037-3.689-0.475  c-0.672-0.238-1.337-1.5-1.337-2.749c0-0.373,1.219-1.669,2.225-1.721c0.691-0.036,3.958,2.094,6.49,2.499  C14.948,30.07,14.617,31.263,13.434,31.521z M24.731,32.8c0,0-0.121,0.896-0.846,0.907c-1.191,0.019-5.289,0.252-6.328-0.24  c-1.039-0.492-1.533-1.898-1.642-2.609c-0.109-0.711,0.492-1.164,1.531-1.265c1.039-0.102,5.277-0.145,6.171,0.099  c0,0,0.936-0.16,1.115,1.195C24.824,31.591,24.731,32.8,24.731,32.8z M8.686,20.221c1.229-3.454,2.393-5.29,3.639-8.404  c0.237-0.597,1.154-1.127,1.849-1.294c1.689-0.403,3.335-0.86,5.056-0.847c5.226,0.04,9.349,0.026,14.574,0.261  c2.144,0.095,4.386,1.592,4.988,3.817c0.699,2.59,1.928,3.618,2.853,6.468C30.63,22.594,19.891,22.54,8.686,20.221z M34.342,30.858  c-0.109,0.711-0.603,2.117-1.642,2.609c-1.039,0.492-5.137,0.259-6.328,0.24c-0.725-0.011-0.846-0.907-0.846-0.907  s-0.093-1.209,0-1.913c0.178-1.355,1.115-1.195,1.115-1.195c0.895-0.244,5.132-0.201,6.171-0.099  C33.85,29.694,34.452,30.147,34.342,30.858z M44.019,31.858c-1.237,0.437-2.612,0.345-3.689,0.475c-1.017,0.022-2.231,0-2.231,0  s-0.621-0.711-1.087-0.812c-1.183-0.259-1.514-1.451-0.372-1.634c2.532-0.405,5.799-2.535,6.49-2.499  c1.006,0.052,2.225,1.348,2.225,1.721C45.356,30.358,44.691,31.621,44.019,31.858z"/>
</svg>