<?xml version="1.0" encoding="UTF-8"?>
<!-- Generator: Adobe Illustrator 18.0.0, SVG Export Plug-In . SVG Version: 6.00 Build 0)  -->
<!DOCTYPE svg PUBLIC "-//W3C//DTD SVG 1.1//EN" "http://www.w3.org/Graphics/SVG/1.1/DTD/svg11.dtd">
<svg version="1.1" id="图层_1" xmlns="http://www.w3.org/2000/svg" xmlns:xlink="http://www.w3.org/1999/xlink" x="0px" y="0px" viewBox="0 0 50 50" enable-background="new 0 0 50 50" xml:space="preserve">
<g>
	<path fill="#1c69d4" d="M44.625,11.29c1.53,3.698,0.801,8.109-2.204,11.114c-3.308,3.31-8.309,3.824-12.195,1.634l-2.811,3.069   l2.005,2.011l1.196-1.196c0.615-0.615,1.606-0.615,2.218,0l9.719,9.813c0.612,0.612,0.612,1.606,0,2.218l-4.436,4.436   c-0.612,0.612-1.606,0.612-2.218,0l-9.716-9.816c-0.612-0.612-0.612-1.606,0-2.218l1.093-1.092l-1.909-1.915L11.927,44.027   c-1.224,1.227-3.212,1.227-4.437,0l-1.109-1.109c-1.224-1.224-1.224-3.209,0-4.434L21.69,25.661L11.523,15.468l-3.21-0.003   L4.598,9.49l2.991-2.996l6.113,3.74l0.042,3.142l10.283,10.327l2.993-2.507c-2.926-3.987-2.62-9.603,0.985-13.208   c2.991-2.99,7.377-3.732,11.064-2.229l-6.591,6.5l5.543,5.543L44.625,11.29L44.625,11.29L44.625,11.29z M10.062,40.045   c-0.612-0.612-1.606-0.612-2.218,0c-0.612,0.615-0.612,1.606,0,2.218c0.612,0.612,1.606,0.612,2.218,0   C10.674,41.651,10.674,40.66,10.062,40.045L10.062,40.045L10.062,40.045z M10.062,40.045"/>
</g>
</svg>