<?xml version="1.0" encoding="UTF-8"?>
<!-- Generator: Adobe Illustrator 18.0.0, SVG Export Plug-In . SVG Version: 6.00 Build 0)  -->
<!DOCTYPE svg PUBLIC "-//W3C//DTD SVG 1.1//EN" "http://www.w3.org/Graphics/SVG/1.1/DTD/svg11.dtd">
<svg version="1.1" id="图层_1" xmlns="http://www.w3.org/2000/svg" xmlns:xlink="http://www.w3.org/1999/xlink" x="0px" y="0px" viewBox="0 0 50 50" enable-background="new 0 0 50 50" xml:space="preserve">
<g>
	<path fill="#666666" d="M34.45,12.708V6.391c0-0.764-0.62-1.384-1.384-1.384H5.146c-0.764,0-1.384,0.62-1.384,1.384v9.389   c0,0.764,0.62,1.384,1.384,1.384h13.82c3.071-2.992,7.266-4.835,11.892-4.835C32.09,12.328,33.292,12.458,34.45,12.708   L34.45,12.708L34.45,12.708z M17.395,18.921H5.146c-0.764,0-1.384,0.62-1.384,1.384v9.389c0,0.764,0.62,1.384,1.384,1.384h8.757   c-0.057-0.563-0.085-1.133-0.085-1.711C13.818,25.432,15.153,21.807,17.395,18.921L17.395,18.921L17.395,18.921z M14.171,32.837   H5.146c-0.764,0-1.384,0.62-1.384,1.384v9.389c0,0.765,0.62,1.384,1.384,1.384H24.05C19.051,42.813,15.302,38.304,14.171,32.837   L14.171,32.837L14.171,32.837z M30.858,13.988c-8.495,0-15.38,6.885-15.38,15.379c0,8.495,6.885,15.38,15.38,15.38   c8.494,0,15.38-6.885,15.38-15.38C46.238,20.873,39.352,13.988,30.858,13.988L30.858,13.988L30.858,13.988z M37.616,28.501v1.875   h-5.497v2.432h5.497v1.849h-5.497v4.527h-2.457v-4.527h-5.562v-1.849h5.562v-2.432h-5.562v-1.875h4.282l-5.148-8.951h2.872   l4.747,8.692l4.773-8.692h2.859l-5.136,8.951H37.616L37.616,28.501L37.616,28.501z M37.616,28.501"/>
</g>
</svg>