<?xml version="1.0" encoding="UTF-8"?>
<!-- Generator: Adobe Illustrator 18.0.0, SVG Export Plug-In . SVG Version: 6.00 Build 0)  -->
<!DOCTYPE svg PUBLIC "-//W3C//DTD SVG 1.1//EN" "http://www.w3.org/Graphics/SVG/1.1/DTD/svg11.dtd">
<svg version="1.1" id="图层_1" xmlns="http://www.w3.org/2000/svg" xmlns:xlink="http://www.w3.org/1999/xlink" x="0px" y="0px" viewBox="0 0 50 50" enable-background="new 0 0 50 50" xml:space="preserve">
<g>
	<path fill="#666666" d="M32.379,38.385c0,0,0,0-0.114,0.064c-2.182,1.221-4.698,1.917-7.377,1.917   c-5.502,0-10.317-2.936-12.966-7.326c-0.037-0.061-0.109-0.183-0.109-0.183s-0.968,0.607-2.294,0.731   c-1.694,0.158-2.747-0.707-2.747-0.707s0.254,0.619,0.267,0.647c3.13,6.723,9.943,11.384,17.848,11.384   c3.528,0,6.838-0.928,9.7-2.553c0.11-0.062,0.552-0.386,0.552-0.386l2.449,3.003l5.637-12.672l-13.279,3.014L32.379,38.385z"/>
	<path fill="#666666" d="M16.011,13.008c0,0,0.249-0.201,0.376-0.298c2.55-1.957,5.74-3.12,9.204-3.12   c5.345,0,10.041,2.771,12.734,6.954c0.04,0.061,0.04,0.061,0.04,0.061s3.239,1.192,3.809,1.453c0.252,0.115,0.88,0.183,1.985,0.292   c0,0.033-0.115-0.461-0.115-0.461s-0.036-0.102-0.055-0.157c-0.364-1.06-0.883-2.052-1.447-3.005   c-3.424-5.795-9.733-9.683-16.952-9.683c-4.434,0-8.525,1.467-11.815,3.941c-0.227,0.171-0.611,0.542-0.611,0.542L10.277,6.63   L5.841,19.771l12.615-3.756L16.011,13.008z"/>
	<path fill="#666666" d="M47.233,25.417c0.038-0.295-0.138-0.528-0.138-0.528s-0.238-0.431-0.317-0.629   c-0.078-0.198-0.332-0.384-0.332-0.384c0.151-0.736,0.026-0.902-0.08-1.348c-0.107-0.445,0.106-1.328,0.106-1.328   s0.099-0.031-0.112-0.166c-0.211-0.135-0.277-0.12-0.72-0.128c-0.443-0.008-1.146-0.185-1.653-0.285   c-0.507-0.1-1.817-0.27-1.817-0.27s-0.162,0.016-1.68-0.621c-2.167-0.909-4.991-1.781-5.17-1.866   c-0.179-0.085-0.234-0.669-0.234-0.669s-0.311-0.03-0.853-0.015c-0.542,0.015-0.826,0.289-0.826,0.289s-0.491-0.091-0.818-0.13   c-0.328-0.039-3.162-0.32-6.184-0.276c-3.021,0.044-3.669,0.443-5.091,1.024c-1.422,0.582-5.138,2.747-5.138,2.747   c-0.573-0.076-1.313-0.024-3.91,0.176c-2.597,0.199-4.782,0.743-6.062,1.155c-1.28,0.412-2.413,1.226-2.774,1.493   c-0.36,0.267-0.342,0.437-0.334,0.601c0.008,0.164,0.015,0.701-0.014,0.771c-0.029,0.071-0.108,0.808-0.108,0.808   s-0.069,1.115,0.015,1.286c0.084,0.171-0.07,0.54-0.171,0.659c-0.101,0.119-0.049,0.316-0.012,0.645   c0.038,0.329,1.043,0.413,1.043,0.413l1.926,0.604c0,0-0.362-1.187-0.205-2.269c0.272-1.882,1.748-3.248,3.881-3.258   c1.795-0.008,3.221,1.128,3.699,2.49c0.537,1.53-0.01,3.038-0.01,3.038l20.727-0.061c0,0-0.197-1.435,0.246-2.668   c0.513-1.431,1.78-2.689,3.964-2.579c2.003,0.101,3.307,1.571,3.692,2.891c0.294,1.008,0.157,1.972,0.157,1.972l1.37-0.208   c0,0,2.141-0.372,2.584-0.38s0.648-0.415,0.648-0.415l0.284-0.258c0,0,0.32-0.437,0.306-0.585   C47.106,27.007,47.195,25.712,47.233,25.417z"/>
	<circle fill="#666666" cx="37.836" cy="28.241" r="3.613"/>
	<circle fill="#666666" cx="9.441" cy="27.859" r="3.473"/>
</g>
</svg>