<?xml version="1.0" encoding="utf-8"?>
<!-- Generator: Adobe Illustrator 15.0.0, SVG Export Plug-In . SVG Version: 6.00 Build 0)  -->
<!DOCTYPE svg PUBLIC "-//W3C//DTD SVG 1.1//EN" "http://www.w3.org/Graphics/SVG/1.1/DTD/svg11.dtd">
<svg version="1.1" id="Ebene_1" xmlns="http://www.w3.org/2000/svg" xmlns:xlink="http://www.w3.org/1999/xlink" x="0px" y="0px"
	 width="192px" height="100px" viewBox="0 0 192 100" enable-background="new 0 0 192 100" xml:space="preserve">
<g id="BMW_i" display="none">
	<g display="inline">
		<rect x="31" y="20" fill="none" width="147.688" height="40.5"/>
		<path fill="#A8A8A8" d="M75.32,44.882V20.003h11.956c2.396,0,4.292,0.446,5.688,1.337c1.751,1.106,2.626,2.766,2.626,4.979
			c0,2.524-1.069,4.302-3.207,5.333c2.664,1.063,3.996,2.981,3.996,5.752c0,4.984-3.421,7.477-10.264,7.477L75.32,44.882
			L75.32,44.882z M80.605,29.8h5.672c1.418,0,2.428-0.226,3.029-0.677c0.623-0.451,0.935-1.16,0.935-2.127
			c0-1.171-0.478-1.966-1.434-2.385c-0.58-0.258-1.423-0.387-2.53-0.387h-5.672V29.8z M80.605,40.66h5.607
			c1.837,0,3.121-0.306,3.851-0.918c0.602-0.505,0.902-1.316,0.902-2.433c0-1.343-0.478-2.261-1.434-2.755
			c-0.73-0.376-1.837-0.564-3.319-0.564h-5.607V40.66z"/>
		<path fill="#A8A8A8" d="M100.167,44.882V20.003h7.203l6.075,18.482l5.994-18.482h7.041v24.879h-5.092V27.157l-5.865,17.725h-4.398
			l-5.896-17.725v17.725H100.167z"/>
		<path fill="#A8A8A8" d="M134.553,44.882l-5.705-24.879h5.607l3.658,17.95l4.398-17.95h5.314l4.254,17.95l3.754-17.95h5.479
			l-6.043,24.879h-5.832l-4.383-17.563l-4.625,17.563H134.553L134.553,44.882z"/>
		<path fill="#A8A8A8" d="M171.42,24.289v-4.286h5.027v4.286H171.42z M171.42,44.882V27.463h5.027v17.418L171.42,44.882
			L171.42,44.882z"/>
	</g>
</g>
<g enable-background="new    ">
	<path fill="#A8A8A8" d="M2.833,26.54v-3.789h4.444v3.789H2.833z M2.833,44.745V29.347h4.444v15.398H2.833z"/>
</g>
<g enable-background="new    ">
	<path fill="#A8A8A8" d="M10.796,44.745V22.751h10.328c2.346,0,4.178,0.617,5.499,1.852c1.32,1.254,1.98,2.958,1.98,5.114
		c0,2.184-0.76,3.926-2.279,5.228c-1.453,1.244-3.381,1.866-5.783,1.866h-5.043v7.934H10.796z M15.497,33.078h4.559
		c1.073,0,1.946-0.294,2.621-0.882c0.703-0.627,1.055-1.458,1.055-2.493c0-1.026-0.323-1.818-0.969-2.38
		c-0.646-0.56-1.529-0.839-2.649-0.839h-4.616V33.078z"/>
</g>
<g enable-background="new    ">
	<path fill="#A8A8A8" d="M45.553,38.12H34.643c0.124,2.546,1.301,3.819,3.532,3.819c1.558,0,2.645-0.699,3.264-2.095l3.76,1.725
		c-1.225,2.469-3.613,3.702-7.164,3.702c-2.336,0-4.188-0.64-5.557-1.922c-1.51-1.424-2.265-3.514-2.265-6.267
		c0-2.44,0.622-4.388,1.866-5.841c1.368-1.614,3.328-2.421,5.882-2.421c1.825,0,3.331,0.37,4.518,1.112
		c2.051,1.291,3.075,3.623,3.075,6.993V38.12z M34.643,35.499h6.51c-0.104-2.335-1.182-3.503-3.233-3.503
		C36.067,31.996,34.975,33.164,34.643,35.499z"/>
</g>
<g enable-background="new    ">
	<path fill="#A8A8A8" d="M47.911,44.745V29.347h4.202l0.228,2.706c0.295-0.702,0.613-1.259,0.954-1.667
		c0.684-0.817,1.638-1.225,2.863-1.225c0.466,0,1.011,0.062,1.638,0.187l-0.37,3.703c-0.723-0.094-1.273-0.142-1.652-0.142
		c-1.074,0-1.919,0.389-2.535,1.167c-0.6,0.751-0.898,1.782-0.898,3.091v7.579H47.911z"/>
</g>
<g enable-background="new    ">
	<path fill="#A8A8A8" d="M60.06,44.745V32.551h-2.039v-3.205h2.039V27.48c0-1.643,0.417-2.882,1.253-3.718
		c0.873-0.874,2.131-1.311,3.774-1.311c0.712,0,1.79,0.11,3.233,0.329l-0.298,3.147c-0.59-0.056-1.037-0.084-1.34-0.084
		c-1.462,0-2.193,0.759-2.193,2.28v1.225h3.332v3.205h-3.332v12.193H60.06z"/>
</g>
<g enable-background="new    ">
	<path fill="#A8A8A8" d="M76.842,28.819c2.621,0,4.662,0.812,6.125,2.436c1.31,1.462,1.967,3.4,1.967,5.812
		c0,2.402-0.657,4.324-1.967,5.768c-1.472,1.624-3.533,2.436-6.181,2.436c-2.421,0-4.352-0.673-5.784-2.022
		c-1.547-1.461-2.323-3.522-2.323-6.181c0-2.431,0.642-4.369,1.924-5.812C72.055,29.631,74.135,28.819,76.842,28.819z
		 M76.714,32.223c-1.102,0-1.979,0.442-2.637,1.326c-0.645,0.865-0.967,2.037-0.967,3.519c0,1.472,0.322,2.635,0.967,3.49
		c0.657,0.863,1.559,1.295,2.708,1.295c1.072,0,1.941-0.389,2.606-1.167c0.711-0.836,1.069-2.066,1.069-3.689
		c0-1.653-0.434-2.93-1.297-3.832C78.566,32.537,77.749,32.223,76.714,32.223z"/>
</g>
<g enable-background="new    ">
	<path fill="#A8A8A8" d="M87.374,44.745V29.347h4.203l0.229,2.706c0.293-0.702,0.612-1.259,0.954-1.667
		c0.685-0.817,1.638-1.225,2.863-1.225c0.466,0,1.011,0.062,1.638,0.187l-0.37,3.703c-0.721-0.094-1.273-0.142-1.652-0.142
		c-1.074,0-1.917,0.389-2.536,1.167c-0.597,0.751-0.896,1.782-0.896,3.091v7.579H87.374z"/>
</g>
<g enable-background="new    ">
	<path fill="#A8A8A8" d="M98.744,44.745V29.347h4.23l0.229,2.179c0.996-1.804,2.521-2.707,4.572-2.707
		c2.127,0,3.542,0.939,4.243,2.82c1.074-1.881,2.722-2.82,4.945-2.82c3.219,0,4.827,1.857,4.827,5.57v10.355h-4.429v-9.63
		c0-1.861-0.705-2.792-2.108-2.792c-0.855,0-1.516,0.356-1.981,1.069c-0.521,0.797-0.783,1.956-0.783,3.476v7.877h-4.444v-9.63
		c0-1.861-0.696-2.792-2.094-2.792c-0.846,0-1.506,0.356-1.979,1.069c-0.531,0.788-0.798,1.946-0.798,3.476v7.877H98.744z"/>
	<path fill="#A8A8A8" d="M134.597,34.802v-0.67c0-1.444-0.863-2.165-2.591-2.165c-0.989,0-1.743,0.241-2.266,0.726
		c-0.285,0.276-0.542,0.665-0.769,1.168l-3.761-1.026c0.273-0.978,0.849-1.809,1.723-2.492c1.292-1.016,3.072-1.525,5.342-1.525
		c2.431,0,4.178,0.5,5.243,1.496c0.93,0.865,1.395,2.146,1.395,3.846v7.264c0,1.225,0.204,2.332,0.612,3.319h-4.059
		c-0.182-0.588-0.285-1.115-0.313-1.581c-0.836,0.759-1.596,1.287-2.28,1.581c-0.826,0.351-1.842,0.526-3.048,0.526
		c-1.549,0-2.787-0.384-3.718-1.153c-1.007-0.836-1.51-2.018-1.51-3.547c0-1.823,0.661-3.152,1.979-3.988
		c0.798-0.512,2.032-0.894,3.704-1.139L134.597,34.802z M134.597,37.594l-3.119,0.471c-1.746,0.266-2.62,1.049-2.62,2.35
		c0,0.552,0.17,0.987,0.514,1.311c0.379,0.36,0.915,0.541,1.607,0.541c0.97,0,1.799-0.242,2.493-0.726
		c0.751-0.523,1.125-1.244,1.125-2.166V37.594z"/>
</g>
<g enable-background="new    ">
	<path fill="#A8A8A8" d="M141.48,44.745V29.347h4.26l0.226,2.179c1.047-1.804,2.712-2.707,5.001-2.707c3.399,0,5.1,1.895,5.1,5.684
		v10.242h-4.43v-9.63c0-1.861-0.821-2.792-2.464-2.792c-0.97,0-1.742,0.385-2.323,1.153c-0.625,0.817-0.939,1.948-0.939,3.391v7.877
		H141.48z"/>
</g>
<g enable-background="new    ">
	<path fill="#A8A8A8" d="M173.448,33.918l-4.131,1.026c-0.521-1.795-1.53-2.693-3.02-2.693c-1.148,0-2.013,0.48-2.592,1.439
		c-0.505,0.826-0.755,1.967-0.755,3.418c0,1.472,0.284,2.632,0.854,3.476c0.559,0.826,1.375,1.239,2.45,1.239
		c1.765,0,2.833-1.001,3.203-3.005l4.175,1.054c-1.141,3.599-3.623,5.398-7.451,5.398c-2.345,0-4.183-0.659-5.513-1.979
		c-1.433-1.424-2.15-3.476-2.15-6.154c0-2.393,0.622-4.33,1.866-5.812c1.387-1.671,3.376-2.507,5.97-2.507
		C170.267,28.819,172.632,30.52,173.448,33.918z"/>
</g>
<g enable-background="new    ">
	<path fill="#A8A8A8" d="M190.381,38.12h-10.912c0.123,2.546,1.3,3.819,3.533,3.819c1.557,0,2.645-0.699,3.261-2.095l3.761,1.725
		c-1.225,2.469-3.613,3.702-7.165,3.702c-2.335,0-4.188-0.64-5.555-1.922c-1.511-1.424-2.265-3.514-2.265-6.267
		c0-2.44,0.622-4.388,1.866-5.841c1.367-1.614,3.327-2.421,5.883-2.421c1.823,0,3.327,0.37,4.515,1.112
		c2.051,1.291,3.078,3.623,3.078,6.993V38.12z M179.469,35.499h6.51c-0.105-2.335-1.183-3.503-3.233-3.503
		C180.893,31.996,179.802,33.164,179.469,35.499z"/>
</g>
</svg>
